<svg width="19" height="21" viewBox="0 0 19 21" fill="none" xmlns="http://www.w3.org/2000/svg">
<path fill-rule="evenodd" clip-rule="evenodd" d="M9.5 0.5625C9.05578 0.5625 8.61924 0.678564 8.23352 0.899223L1.77096 4.60471C1.44559 4.79157 1.17152 5.04432 0.962159 5.3407C0.915948 5.38506 0.875154 5.43662 0.841539 5.49493C0.812986 5.54446 0.791228 5.59605 0.775977 5.64862C0.597624 5.99747 0.5 6.38868 0.5 6.79418V14.2058C0.5 15.1117 0.986543 15.945 1.77169 16.3948L8.23352 20.0999C8.6071 20.3136 9.02835 20.4292 9.45809 20.4362C9.47196 20.4371 9.48593 20.4375 9.50001 20.4375C9.51409 20.4375 9.52808 20.4371 9.54195 20.4362C9.97171 20.4292 10.3935 20.3132 10.7671 20.0995L17.229 16.3944C18.0137 15.9437 18.5 15.1099 18.5 14.2049L18.5 6.79326L18.5 6.79204C18.4993 6.39272 18.404 5.99992 18.2227 5.64568C18.2075 5.59414 18.1861 5.54356 18.158 5.49496C18.1252 5.43802 18.0855 5.38752 18.0407 5.34387C17.828 5.04129 17.5509 4.78849 17.2284 4.60431L17.2273 4.6037L10.7665 0.899223C10.3808 0.678564 9.94422 0.5625 9.5 0.5625ZM1.88462 6.89849V14.2058C1.88462 14.6106 2.10164 14.9865 2.45907 15.1912L8.8077 18.8313V10.901L1.88462 6.89849ZM9.49982 9.70004L16.3858 5.719L10.0797 2.10318C9.90317 2.00226 9.70324 1.94906 9.5 1.94906C9.29676 1.94906 9.09683 2.00226 8.92033 2.10318L2.61397 5.71911L9.49982 9.70004ZM17.1154 6.89828L10.1923 10.9007V18.8313L16.5402 15.1916C16.8982 14.9859 17.1154 14.6088 17.1154 14.2049L17.1154 6.89828Z" fill="#010026"/>
</svg>
