<svg width="30" height="30" viewBox="0 0 30 30" fill="none" xmlns="http://www.w3.org/2000/svg">
<rect width="30" height="30" rx="5" fill="#32424F"/>
<path d="M15.0006 7.5C12.9637 7.5 12.7081 7.50891 11.9081 7.54531C11.1097 7.58188 10.5647 7.70828 10.0878 7.89375C9.59453 8.08531 9.17609 8.34156 8.75922 8.75859C8.34203 9.17547 8.08578 9.59391 7.89359 10.087C7.70766 10.5641 7.58109 11.1092 7.54516 11.9073C7.50937 12.7073 7.5 12.9631 7.5 15C7.5 17.0369 7.50906 17.2917 7.54531 18.0917C7.58203 18.8902 7.70844 19.4352 7.89375 19.912C8.08547 20.4053 8.34172 20.8238 8.75875 21.2406C9.17547 21.6578 9.59391 21.9147 10.0869 22.1063C10.5641 22.2917 11.1092 22.4181 11.9075 22.4547C12.7075 22.4911 12.963 22.5 14.9997 22.5C17.0367 22.5 17.2916 22.4911 18.0916 22.4547C18.89 22.4181 19.4356 22.2917 19.9128 22.1063C20.4059 21.9147 20.8238 21.6578 21.2405 21.2406C21.6577 20.8238 21.9139 20.4053 22.1061 19.9122C22.2905 19.4352 22.417 18.89 22.4545 18.0919C22.4905 17.2919 22.4998 17.0369 22.4998 15C22.4998 12.9631 22.4905 12.7075 22.4545 11.9075C22.417 11.1091 22.2905 10.5641 22.1061 10.0872C21.9139 9.59391 21.6577 9.17547 21.2405 8.75859C20.8233 8.34141 20.4061 8.08516 19.9123 7.89375C19.4342 7.70828 18.8889 7.58188 18.0905 7.54531C17.2905 7.50891 17.0358 7.5 14.9983 7.5H15.0006ZM14.3278 8.85156C14.5275 8.85125 14.7503 8.85156 15.0006 8.85156C17.0031 8.85156 17.2405 8.85875 18.0312 8.89469C18.7625 8.92813 19.1594 9.05031 19.4237 9.15297C19.7737 9.28891 20.0233 9.45141 20.2856 9.71391C20.5481 9.97641 20.7106 10.2264 20.8469 10.5764C20.9495 10.8405 21.0719 11.2373 21.1052 11.9686C21.1411 12.7592 21.1489 12.9967 21.1489 14.9983C21.1489 16.9998 21.1411 17.2373 21.1052 18.028C21.0717 18.7592 20.9495 19.1561 20.8469 19.4202C20.7109 19.7702 20.5481 20.0194 20.2856 20.2817C20.0231 20.5442 19.7739 20.7067 19.4237 20.8427C19.1597 20.9458 18.7625 21.0677 18.0312 21.1011C17.2406 21.137 17.0031 21.1448 15.0006 21.1448C12.998 21.1448 12.7606 21.137 11.97 21.1011C11.2388 21.0673 10.8419 20.9452 10.5773 20.8425C10.2273 20.7066 9.97734 20.5441 9.71484 20.2816C9.45234 20.0191 9.28984 19.7697 9.15359 19.4195C9.05094 19.1555 8.92859 18.7586 8.89531 18.0273C8.85938 17.2367 8.85219 16.9992 8.85219 14.9964C8.85219 12.9936 8.85938 12.7573 8.89531 11.9667C8.92875 11.2355 9.05094 10.8386 9.15359 10.5742C9.28953 10.2242 9.45234 9.97422 9.71484 9.71172C9.97734 9.44922 10.2273 9.28672 10.5773 9.15047C10.8417 9.04734 11.2388 8.92547 11.97 8.89188C12.6619 8.86063 12.93 8.85125 14.3278 8.84969V8.85156ZM19.0041 10.0969C18.5072 10.0969 18.1041 10.4995 18.1041 10.9966C18.1041 11.4934 18.5072 11.8966 19.0041 11.8966C19.5009 11.8966 19.9041 11.4934 19.9041 10.9966C19.9041 10.4997 19.5009 10.0966 19.0041 10.0966V10.0969ZM15.0006 11.1484C12.8736 11.1484 11.1491 12.873 11.1491 15C11.1491 17.127 12.8736 18.8508 15.0006 18.8508C17.1277 18.8508 18.8516 17.127 18.8516 15C18.8516 12.873 17.1277 11.1484 15.0006 11.1484ZM15.0006 12.5C16.3812 12.5 17.5006 13.6192 17.5006 15C17.5006 16.3806 16.3812 17.5 15.0006 17.5C13.6198 17.5 12.5006 16.3806 12.5006 15C12.5006 13.6192 13.6198 12.5 15.0006 12.5Z" fill="#F0F6FF"/>
</svg>
