<svg width="30" height="30" viewBox="0 0 30 30" fill="none" xmlns="http://www.w3.org/2000/svg">
<rect width="30" height="30" rx="5" fill="#32424F"/>
<path d="M15.833 22.4998H12.5V12.4998H15.833V14.1668C16.1839 13.7201 16.6293 13.3566 17.1372 13.1025C17.6452 12.8483 18.2031 12.7098 18.771 12.6968C19.764 12.7023 20.7143 13.1015 21.4133 13.8068C22.1124 14.512 22.5032 15.4657 22.5 16.4588V22.4998H19.166V16.8748C19.1014 16.4244 18.8763 16.0124 18.5322 15.7148C18.1881 15.4171 17.748 15.2538 17.293 15.2548C17.0895 15.2614 16.8894 15.309 16.7047 15.3948C16.52 15.4806 16.3546 15.6028 16.2182 15.754C16.0819 15.9053 15.9775 16.0825 15.9113 16.2751C15.8451 16.4677 15.8185 16.6716 15.833 16.8748V22.4998ZM10.833 22.4998H7.5V12.4998H10.833V22.4998ZM9.167 10.8338C8.94809 10.8338 8.73132 10.7906 8.52907 10.7069C8.32682 10.6231 8.14305 10.5003 7.98825 10.3455C7.83346 10.1907 7.71067 10.0069 7.62689 9.80469C7.54312 9.60244 7.5 9.38567 7.5 9.16676C7.5 8.94784 7.54312 8.73107 7.62689 8.52882C7.71067 8.32657 7.83346 8.1428 7.98825 7.98801C8.14305 7.83321 8.32682 7.71042 8.52907 7.62665C8.73132 7.54287 8.94809 7.49976 9.167 7.49976C9.60912 7.49976 10.0331 7.67539 10.3457 7.98801C10.6584 8.30063 10.834 8.72464 10.834 9.16676C10.834 9.60887 10.6584 10.0329 10.3457 10.3455C10.0331 10.6581 9.60912 10.8338 9.167 10.8338Z" fill="#F0F6FF"/>
</svg>
