<svg width="989" height="787" viewBox="0 0 989 787" fill="none" xmlns="http://www.w3.org/2000/svg">
<g clip-path="url(#clip0_68_1407)">
<path d="M204.778 -30L232.09 -22.2003C257.851 -14.8432 275.613 8.70159 275.613 35.4931V84.728C275.613 111.519 293.375 135.064 319.137 142.421L558.35 210.737C584.111 218.094 601.873 241.639 601.873 268.43V317.665C601.873 344.457 619.635 368.002 645.397 375.359L884.609 443.674C910.371 451.031 928.133 474.576 928.133 501.368V551.051C928.133 577.851 945.906 601.401 971.678 608.75L989 613.69" stroke="url(#paint0_linear_68_1407)" stroke-dasharray="4 4"/>
<path d="M0.5 410L232.218 476.732C257.915 484.133 275.613 507.647 275.613 534.389V583.728C275.613 610.519 293.375 634.064 319.137 641.421L558.35 709.737C584.111 717.094 601.873 740.639 601.873 767.43V816.665C601.873 843.457 619.635 867.002 645.397 874.359L884.609 942.674C910.371 950.031 928.133 973.576 928.133 1000.37V1050.05C928.133 1076.85 945.906 1100.4 971.678 1107.75L989 1112.69" stroke="url(#paint1_linear_68_1407)" stroke-dasharray="4 4"/>
<path d="M0.5 710L232.218 776.732C257.915 784.133 275.613 807.647 275.613 834.389V883.728C275.613 910.519 293.375 934.064 319.137 941.421L558.35 1009.74C584.111 1017.09 601.873 1040.64 601.873 1067.43V1116.67C601.873 1143.46 619.635 1167 645.397 1174.36L884.609 1242.67C910.371 1250.03 928.133 1273.58 928.133 1300.37V1350.05C928.133 1376.85 945.906 1400.4 971.678 1407.75L989 1412.69" stroke="url(#paint2_linear_68_1407)" stroke-dasharray="4 4"/>
<path d="M0.5 110L232.218 176.732C257.915 184.133 275.613 207.647 275.613 234.389V283.728C275.613 310.519 293.375 334.064 319.137 341.421L558.35 409.737C584.111 417.094 601.873 440.639 601.873 467.43V516.665C601.873 543.457 619.635 567.002 645.397 574.359L884.609 642.674C910.371 650.031 928.133 673.576 928.133 700.368V750.051C928.133 776.851 945.906 800.401 971.678 807.75L989 812.69" stroke="url(#paint3_linear_68_1407)" stroke-dasharray="4 4"/>
<path d="M694.436 588.347L876.436 640.347" stroke="url(#paint4_linear_68_1407)" stroke-width="1.2"/>
<path d="M142.534 151.296L232.283 177.274C257.942 184.701 275.6 208.196 275.6 234.908V259.987" stroke="url(#paint5_linear_68_1407)" stroke-width="1.2"/>
<path d="M0.5 260L232.218 326.732C257.915 334.133 275.613 357.647 275.613 384.389V433.728C275.613 460.519 293.375 484.064 319.137 491.421L558.35 559.737C584.111 567.094 601.873 590.639 601.873 617.43V666.665C601.873 693.457 619.635 717.002 645.397 724.359L884.609 792.674C910.371 800.031 928.133 823.576 928.133 850.368V900.051C928.133 926.851 945.906 950.401 971.678 957.75L989 962.69" stroke="url(#paint6_linear_68_1407)" stroke-dasharray="4 4"/>
<path d="M81 433.078L263 485.078" stroke="url(#paint7_linear_68_1407)" stroke-width="1.2"/>
<path d="M0.5 560L232.218 626.732C257.915 634.133 275.613 657.647 275.613 684.389V733.728C275.613 760.519 293.375 784.064 319.137 791.421L558.35 859.737C584.111 867.094 601.873 890.639 601.873 917.43V966.665C601.873 993.457 619.635 1017 645.397 1024.36L884.609 1092.67C910.371 1100.03 928.133 1123.58 928.133 1150.37V1200.05C928.133 1226.85 945.906 1250.4 971.678 1257.75L989 1262.69" stroke="url(#paint8_linear_68_1407)" stroke-dasharray="4 4"/>
<path d="M57.3076 726.834L239.308 778.834" stroke="url(#paint9_linear_68_1407)" stroke-width="1.2"/>
</g>
<defs>
<linearGradient id="paint0_linear_68_1407" x1="229.5" y1="-22.5" x2="1091.03" y2="303.914" gradientUnits="userSpaceOnUse">
<stop offset="0.0410322" stop-color="#CCE9FF" stop-opacity="0"/>
<stop offset="0.208326" stop-color="#CCE9FF"/>
<stop offset="0.652623" stop-color="#CCE9FF"/>
<stop offset="0.816558" stop-color="#CCE9FF" stop-opacity="0"/>
</linearGradient>
<linearGradient id="paint1_linear_68_1407" x1="-1.93406e-06" y1="410" x2="1086.01" y2="722.429" gradientUnits="userSpaceOnUse">
<stop offset="0.0287413" stop-color="#CCE9FF" stop-opacity="0"/>
<stop offset="0.208326" stop-color="#CCE9FF"/>
<stop offset="0.855112" stop-color="#CCE9FF"/>
<stop offset="0.964342" stop-color="#CCE9FF" stop-opacity="0"/>
</linearGradient>
<linearGradient id="paint2_linear_68_1407" x1="-1.93406e-06" y1="710" x2="1086.01" y2="1022.43" gradientUnits="userSpaceOnUse">
<stop offset="0.0287413" stop-color="#CCE9FF" stop-opacity="0"/>
<stop offset="0.208326" stop-color="#CCE9FF"/>
<stop offset="0.855112" stop-color="#CCE9FF"/>
<stop offset="0.964342" stop-color="#CCE9FF" stop-opacity="0"/>
</linearGradient>
<linearGradient id="paint3_linear_68_1407" x1="-1.93406e-06" y1="110" x2="1086.01" y2="422.429" gradientUnits="userSpaceOnUse">
<stop offset="0.0287413" stop-color="#CCE9FF" stop-opacity="0"/>
<stop offset="0.208326" stop-color="#CCE9FF"/>
<stop offset="0.855112" stop-color="#CCE9FF"/>
<stop offset="0.964342" stop-color="#CCE9FF" stop-opacity="0"/>
</linearGradient>
<linearGradient id="paint4_linear_68_1407" x1="694.436" y1="588.347" x2="884.436" y2="642.847" gradientUnits="userSpaceOnUse">
<stop stop-color="#A8D9FF" stop-opacity="0"/>
<stop offset="0.295834" stop-color="#A8D9FF"/>
<stop offset="0.677223" stop-color="#A8D9FF"/>
<stop offset="1" stop-color="#A8D9FF" stop-opacity="0"/>
</linearGradient>
<linearGradient id="paint5_linear_68_1407" x1="301.325" y1="283.939" x2="247.909" y2="117.481" gradientUnits="userSpaceOnUse">
<stop stop-color="#A8D9FF" stop-opacity="0"/>
<stop offset="0.295834" stop-color="#A8D9FF"/>
<stop offset="0.677223" stop-color="#A8D9FF"/>
<stop offset="1" stop-color="#A8D9FF" stop-opacity="0"/>
</linearGradient>
<linearGradient id="paint6_linear_68_1407" x1="-1.93406e-06" y1="260" x2="1086.01" y2="572.429" gradientUnits="userSpaceOnUse">
<stop offset="0.0287413" stop-color="#CCE9FF" stop-opacity="0"/>
<stop offset="0.208326" stop-color="#CCE9FF"/>
<stop offset="0.68333" stop-color="#CCE9FF"/>
<stop offset="0.813844" stop-color="#CCE9FF" stop-opacity="0"/>
</linearGradient>
<linearGradient id="paint7_linear_68_1407" x1="81" y1="433.078" x2="271" y2="487.578" gradientUnits="userSpaceOnUse">
<stop stop-color="#D3C6F6" stop-opacity="0"/>
<stop offset="0.0001" stop-color="#A8D9FF" stop-opacity="0.0176056"/>
<stop offset="0.295834" stop-color="#A8D9FF"/>
<stop offset="0.677223" stop-color="#A8D9FF"/>
<stop offset="1" stop-color="#A8D9FF" stop-opacity="0"/>
</linearGradient>
<linearGradient id="paint8_linear_68_1407" x1="-1.93406e-06" y1="560" x2="1086.01" y2="872.429" gradientUnits="userSpaceOnUse">
<stop offset="0.0287413" stop-color="#CCE9FF" stop-opacity="0"/>
<stop offset="0.208326" stop-color="#CCE9FF"/>
<stop offset="0.855112" stop-color="#CCE9FF"/>
<stop offset="0.964342" stop-color="#CCE9FF" stop-opacity="0"/>
</linearGradient>
<linearGradient id="paint9_linear_68_1407" x1="57.3077" y1="726.833" x2="247.308" y2="781.334" gradientUnits="userSpaceOnUse">
<stop stop-color="#A8D9FF" stop-opacity="0"/>
<stop offset="0.295834" stop-color="#A8D9FF"/>
<stop offset="0.677223" stop-color="#A8D9FF"/>
<stop offset="1" stop-color="#A8D9FF" stop-opacity="0"/>
</linearGradient>
<clipPath id="clip0_68_1407">
<rect width="989" height="787" fill="white" transform="matrix(-1 0 0 1 989 0)"/>
</clipPath>
</defs>
</svg>
